<svg xmlns="http://www.w3.org/2000/svg" xmlns:xlink="http://www.w3.org/1999/xlink" width="500" zoomAndPan="magnify" viewBox="0 0 375 157.92" height="200" preserveAspectRatio="xMidYMid meet" version="1.2"><defs><clipPath id="cbdcbd0785"><path d="M 15.085938 43 L 62 43 L 62 107 L 15.085938 107 Z M 15.085938 43 "/></clipPath><clipPath id="abfd6e1753"><path d="M 24.804688 52.199219 L 53.289062 52.199219 L 53.289062 80.683594 L 24.804688 80.683594 Z M 24.804688 52.199219 "/></clipPath><clipPath id="18d171157e"><path d="M 33.730469 59.496094 L 54.105469 59.496094 L 54.105469 82.179688 L 33.730469 82.179688 Z M 33.730469 59.496094 "/></clipPath><clipPath id="d661cb74d7"><path d="M 43.917969 59.496094 C 38.292969 59.496094 33.730469 64.574219 33.730469 70.835938 C 33.730469 77.101562 38.292969 82.179688 43.917969 82.179688 C 49.546875 82.179688 54.105469 77.101562 54.105469 70.835938 C 54.105469 64.574219 49.546875 59.496094 43.917969 59.496094 Z M 43.917969 59.496094 "/></clipPath><clipPath id="f2eb41e9cd"><path d="M 0.730469 0.496094 L 21.105469 0.496094 L 21.105469 23.179688 L 0.730469 23.179688 Z M 0.730469 0.496094 "/></clipPath><clipPath id="a56ea1d4cb"><path d="M 10.917969 0.496094 C 5.292969 0.496094 0.730469 5.574219 0.730469 11.835938 C 0.730469 18.101562 5.292969 23.179688 10.917969 23.179688 C 16.546875 23.179688 21.105469 18.101562 21.105469 11.835938 C 21.105469 5.574219 16.546875 0.496094 10.917969 0.496094 Z M 10.917969 0.496094 "/></clipPath><clipPath id="3dfef79df2"><rect x="0" width="22" y="0" height="24"/></clipPath><clipPath id="043267bb78"><path d="M 30.621094 72.542969 L 46.433594 72.542969 L 46.433594 88.359375 L 30.621094 88.359375 Z M 30.621094 72.542969 "/></clipPath><clipPath id="f68d8c5fd0"><path d="M 38.527344 72.542969 C 34.160156 72.542969 30.621094 76.082031 30.621094 80.449219 C 30.621094 84.816406 34.160156 88.359375 38.527344 88.359375 C 42.894531 88.359375 46.433594 84.816406 46.433594 80.449219 C 46.433594 76.082031 42.894531 72.542969 38.527344 72.542969 Z M 38.527344 72.542969 "/></clipPath><clipPath id="6085f92b51"><path d="M 0.621094 0.542969 L 16.433594 0.542969 L 16.433594 16.359375 L 0.621094 16.359375 Z M 0.621094 0.542969 "/></clipPath><clipPath id="953d596888"><path d="M 8.527344 0.542969 C 4.160156 0.542969 0.621094 4.082031 0.621094 8.449219 C 0.621094 12.816406 4.160156 16.359375 8.527344 16.359375 C 12.894531 16.359375 16.433594 12.816406 16.433594 8.449219 C 16.433594 4.082031 12.894531 0.542969 8.527344 0.542969 Z M 8.527344 0.542969 "/></clipPath><clipPath id="8f08016856"><rect x="0" width="17" y="0" height="17"/></clipPath><clipPath id="d71c51326c"><path d="M 34.78125 74 L 52.773438 74 L 52.773438 86.664062 L 34.78125 86.664062 Z M 34.78125 74 "/></clipPath><clipPath id="4ffabd01d9"><path d="M 38 62.675781 L 50 62.675781 L 50 75 L 38 75 Z M 38 62.675781 "/></clipPath></defs><g id="c35feba603"><g style="fill:#1c511e;fill-opacity:1;"><g transform="translate(78.881435, 96.04946)"><path style="stroke:none" d="M 26.125 -45 L 44.296875 0 L 33.28125 0 L 29.953125 -9 L 12.8125 -9 L 9.484375 0 L -1.53125 0 L 16.640625 -45 Z M 26.453125 -18 L 21.4375 -31.09375 L 21.328125 -31.09375 L 16.3125 -18 Z M 26.453125 -18 "/></g></g><g style="fill:#1c511e;fill-opacity:1;"><g transform="translate(121.636828, 96.04946)"><path style="stroke:none" d="M 3.265625 0 L 3.265625 -27.984375 L 12.921875 -27.984375 L 12.921875 -23.953125 L 13.03125 -23.953125 C 13.101562 -24.097656 13.222656 -24.273438 13.390625 -24.484375 C 13.554688 -24.703125 13.910156 -25.082031 14.453125 -25.625 C 14.992188 -26.175781 15.570312 -26.671875 16.1875 -27.109375 C 16.8125 -27.546875 17.613281 -27.9375 18.59375 -28.28125 C 19.582031 -28.625 20.582031 -28.796875 21.59375 -28.796875 C 22.65625 -28.796875 23.691406 -28.648438 24.703125 -28.359375 C 25.722656 -28.066406 26.472656 -27.773438 26.953125 -27.484375 L 27.703125 -27.0625 L 23.671875 -18.875 C 22.472656 -19.894531 20.800781 -20.40625 18.65625 -20.40625 C 17.488281 -20.40625 16.488281 -20.148438 15.65625 -19.640625 C 14.820312 -19.128906 14.226562 -18.507812 13.875 -17.78125 C 13.53125 -17.050781 13.285156 -16.429688 13.140625 -15.921875 C 12.992188 -15.410156 12.921875 -15.015625 12.921875 -14.734375 L 12.921875 0 Z M 3.265625 0 "/></g></g><g style="fill:#1c511e;fill-opacity:1;"><g transform="translate(148.795233, 96.04946)"><path style="stroke:none" d="M 31.578125 -12.65625 L 11.296875 -12.65625 C 11.296875 -10.6875 11.929688 -9.226562 13.203125 -8.28125 C 14.472656 -7.34375 15.851562 -6.875 17.34375 -6.875 C 18.90625 -6.875 20.140625 -7.082031 21.046875 -7.5 C 21.960938 -7.914062 23.003906 -8.742188 24.171875 -9.984375 L 31.140625 -6.484375 C 28.234375 -1.617188 23.398438 0.8125 16.640625 0.8125 C 12.421875 0.8125 8.800781 -0.628906 5.78125 -3.515625 C 2.757812 -6.410156 1.25 -9.894531 1.25 -13.96875 C 1.25 -18.039062 2.757812 -21.53125 5.78125 -24.4375 C 8.800781 -27.34375 12.421875 -28.796875 16.640625 -28.796875 C 21.078125 -28.796875 24.6875 -27.515625 27.46875 -24.953125 C 30.25 -22.390625 31.640625 -18.726562 31.640625 -13.96875 C 31.640625 -13.3125 31.617188 -12.875 31.578125 -12.65625 Z M 11.5625 -18 L 22.203125 -18 C 21.984375 -19.457031 21.410156 -20.578125 20.484375 -21.359375 C 19.554688 -22.140625 18.363281 -22.53125 16.90625 -22.53125 C 15.3125 -22.53125 14.039062 -22.109375 13.09375 -21.265625 C 12.144531 -20.429688 11.632812 -19.34375 11.5625 -18 Z M 11.5625 -18 "/></g></g><g style="fill:#1c511e;fill-opacity:1;"><g transform="translate(181.679799, 96.04946)"><path style="stroke:none" d="M 3.265625 0 L 3.265625 -27.984375 L 12.921875 -27.984375 L 12.921875 -25.03125 L 13.03125 -25.03125 C 15.539062 -27.539062 18.21875 -28.796875 21.0625 -28.796875 C 22.4375 -28.796875 23.804688 -28.613281 25.171875 -28.25 C 26.535156 -27.882812 27.84375 -27.320312 29.09375 -26.5625 C 30.351562 -25.800781 31.375 -24.71875 32.15625 -23.3125 C 32.9375 -21.914062 33.328125 -20.289062 33.328125 -18.4375 L 33.328125 0 L 23.671875 0 L 23.671875 -15.8125 C 23.671875 -17.269531 23.207031 -18.539062 22.28125 -19.625 C 21.351562 -20.71875 20.144531 -21.265625 18.65625 -21.265625 C 17.195312 -21.265625 15.875 -20.703125 14.6875 -19.578125 C 13.507812 -18.453125 12.921875 -17.195312 12.921875 -15.8125 L 12.921875 0 Z M 3.265625 0 "/></g></g><g style="fill:#1c511e;fill-opacity:1;"><g transform="translate(217.727397, 96.04946)"><path style="stroke:none" d="M 5.171875 -3.46875 C 2.554688 -6.320312 1.25 -9.820312 1.25 -13.96875 C 1.25 -18.113281 2.554688 -21.617188 5.171875 -24.484375 C 7.796875 -27.359375 11.125 -28.796875 15.15625 -28.796875 C 18.875 -28.796875 21.929688 -27.632812 24.328125 -25.3125 L 24.328125 -27.984375 L 33.984375 -27.984375 L 33.984375 0 L 24.4375 0 L 24.4375 -3.15625 L 24.328125 -3.15625 C 21.929688 -0.507812 18.875 0.8125 15.15625 0.8125 C 11.125 0.8125 7.796875 -0.613281 5.171875 -3.46875 Z M 13.390625 -18.703125 C 12.140625 -17.472656 11.515625 -15.894531 11.515625 -13.96875 C 11.515625 -12.039062 12.113281 -10.46875 13.3125 -9.25 C 14.507812 -8.03125 16.09375 -7.421875 18.0625 -7.421875 C 19.945312 -7.421875 21.5 -8.035156 22.71875 -9.265625 C 23.9375 -10.503906 24.546875 -12.070312 24.546875 -13.96875 C 24.546875 -15.894531 23.914062 -17.472656 22.65625 -18.703125 C 21.40625 -19.941406 19.875 -20.5625 18.0625 -20.5625 C 16.195312 -20.5625 14.640625 -19.941406 13.390625 -18.703125 Z M 13.390625 -18.703125 "/></g></g><g style="fill:#189e1e;fill-opacity:1;"><g transform="translate(254.983623, 96.04946)"><path style="stroke:none" d="M 13.53125 -18.0625 L 13.53125 0 L 3.265625 0 L 3.265625 -45 L 13.53125 -45 L 13.53125 -27.0625 L 28.03125 -27.0625 L 28.03125 -45 L 38.296875 -45 L 38.296875 0 L 28.03125 0 L 28.03125 -18.0625 Z M 13.53125 -18.0625 "/></g></g><g style="fill:#189e1e;fill-opacity:1;"><g transform="translate(296.539252, 96.04946)"><path style="stroke:none" d="M 12.375 -27.984375 L 12.375 -14.671875 C 12.375 -11.910156 12.789062 -9.945312 13.625 -8.78125 C 14.46875 -7.613281 15.890625 -7.03125 17.890625 -7.03125 C 19.890625 -7.03125 21.304688 -7.613281 22.140625 -8.78125 C 22.984375 -9.945312 23.40625 -11.910156 23.40625 -14.671875 L 23.40625 -27.984375 L 33.0625 -27.984375 L 33.0625 -12.328125 C 33.0625 -7.671875 31.847656 -4.316406 29.421875 -2.265625 C 27.003906 -0.210938 23.160156 0.8125 17.890625 0.8125 C 12.617188 0.8125 8.773438 -0.210938 6.359375 -2.265625 C 3.941406 -4.316406 2.734375 -7.671875 2.734375 -12.328125 L 2.734375 -27.984375 Z M 12.375 -27.984375 "/></g></g><g style="fill:#189e1e;fill-opacity:1;"><g transform="translate(332.314173, 96.04946)"><path style="stroke:none" d="M 32.0625 -24.484375 C 34.6875 -21.617188 36 -18.113281 36 -13.96875 C 36 -9.820312 34.6875 -6.320312 32.0625 -3.46875 C 29.445312 -0.613281 26.125 0.8125 22.09375 0.8125 C 18.382812 0.8125 15.328125 -0.507812 12.921875 -3.15625 L 12.8125 -3.15625 L 12.8125 0 L 3.265625 0 L 3.265625 -46.90625 L 12.921875 -46.90625 L 12.921875 -25.3125 C 15.328125 -27.632812 18.382812 -28.796875 22.09375 -28.796875 C 26.125 -28.796875 29.445312 -27.359375 32.0625 -24.484375 Z M 23.9375 -9.25 C 25.144531 -10.46875 25.75 -12.039062 25.75 -13.96875 C 25.75 -15.894531 25.117188 -17.472656 23.859375 -18.703125 C 22.609375 -19.941406 21.054688 -20.5625 19.203125 -20.5625 C 17.378906 -20.5625 15.835938 -19.941406 14.578125 -18.703125 C 13.328125 -17.472656 12.703125 -15.894531 12.703125 -13.96875 C 12.703125 -12.070312 13.3125 -10.503906 14.53125 -9.265625 C 15.75 -8.035156 17.304688 -7.421875 19.203125 -7.421875 C 21.160156 -7.421875 22.738281 -8.03125 23.9375 -9.25 Z M 23.9375 -9.25 "/></g></g><g clip-rule="nonzero" clip-path="url(#cbdcbd0785)"><path style=" stroke:none;fill-rule:nonzero;fill:#189e1e;fill-opacity:1;" d="M 38.519531 78.425781 C 31.585938 78.425781 25.957031 72.800781 25.957031 65.855469 C 25.957031 58.925781 31.585938 53.296875 38.519531 53.296875 C 45.464844 53.296875 51.082031 58.925781 51.082031 65.855469 C 51.082031 72.800781 45.464844 78.425781 38.519531 78.425781 Z M 38.519531 43.113281 C 25.582031 43.113281 15.089844 53.601562 15.089844 66.542969 C 15.089844 79.492188 38.519531 106.71875 38.519531 106.71875 C 38.519531 106.71875 61.957031 79.492188 61.957031 66.542969 C 61.957031 53.601562 51.46875 43.113281 38.519531 43.113281 "/></g><g clip-rule="nonzero" clip-path="url(#abfd6e1753)"><path style=" stroke:none;fill-rule:nonzero;fill:#000000;fill-opacity:1;" d="M 53.292969 66.445312 C 53.292969 67.378906 53.203125 68.304688 53.019531 69.222656 C 52.839844 70.140625 52.566406 71.03125 52.210938 71.894531 C 51.851562 72.757812 51.414062 73.578125 50.894531 74.355469 C 50.375 75.136719 49.785156 75.855469 49.121094 76.515625 C 48.460938 77.175781 47.742188 77.769531 46.964844 78.289062 C 46.1875 78.808594 45.367188 79.246094 44.5 79.605469 C 43.636719 79.960938 42.746094 80.230469 41.828125 80.414062 C 40.910156 80.597656 39.984375 80.6875 39.050781 80.6875 C 38.117188 80.6875 37.1875 80.597656 36.273438 80.414062 C 35.355469 80.230469 34.464844 79.960938 33.597656 79.605469 C 32.734375 79.246094 31.914062 78.808594 31.136719 78.289062 C 30.359375 77.769531 29.640625 77.175781 28.976562 76.515625 C 28.316406 75.855469 27.726562 75.136719 27.207031 74.355469 C 26.6875 73.578125 26.25 72.757812 25.890625 71.894531 C 25.53125 71.03125 25.261719 70.140625 25.082031 69.222656 C 24.898438 68.304688 24.804688 67.378906 24.804688 66.445312 C 24.804688 65.507812 24.898438 64.582031 25.082031 63.664062 C 25.261719 62.746094 25.53125 61.855469 25.890625 60.992188 C 26.25 60.128906 26.6875 59.308594 27.207031 58.53125 C 27.726562 57.753906 28.316406 57.03125 28.976562 56.371094 C 29.640625 55.710938 30.359375 55.121094 31.136719 54.601562 C 31.914062 54.082031 32.734375 53.640625 33.597656 53.285156 C 34.464844 52.925781 35.355469 52.65625 36.273438 52.472656 C 37.1875 52.292969 38.117188 52.199219 39.050781 52.199219 C 39.984375 52.199219 40.910156 52.292969 41.828125 52.472656 C 42.746094 52.65625 43.636719 52.925781 44.5 53.285156 C 45.367188 53.640625 46.1875 54.082031 46.964844 54.601562 C 47.742188 55.121094 48.460938 55.710938 49.121094 56.371094 C 49.785156 57.03125 50.375 57.753906 50.894531 58.53125 C 51.414062 59.308594 51.851562 60.128906 52.210938 60.992188 C 52.566406 61.855469 52.839844 62.746094 53.019531 63.664062 C 53.203125 64.582031 53.292969 65.507812 53.292969 66.445312 Z M 53.292969 66.445312 "/></g><path style=" stroke:none;fill-rule:nonzero;fill:#ffffff;fill-opacity:1;" d="M 41.082031 75.035156 C 40.609375 75.210938 40.375 74.859375 40.117188 74.398438 C 39.3125 72.949219 38.46875 71.523438 37.632812 70.09375 C 37.53125 69.925781 37.535156 69.796875 37.625 69.628906 C 38.328125 68.316406 39.019531 67.003906 39.703125 65.6875 C 39.78125 65.535156 39.863281 65.472656 40.046875 65.457031 C 41.546875 65.3125 43.042969 65.148438 44.542969 64.992188 C 44.972656 64.945312 45.40625 64.914062 45.839844 64.867188 C 45.972656 64.851562 46.046875 64.890625 46.125 65.003906 C 46.929688 66.222656 47.707031 67.457031 48.363281 68.761719 C 48.441406 68.894531 48.441406 69.027344 48.355469 69.15625 C 47.417969 70.902344 46.484375 72.648438 45.554688 74.398438 C 45.457031 74.582031 45.3125 74.582031 45.15625 74.609375 C 43.808594 74.847656 42.449219 74.988281 41.082031 75.035156 Z M 41.082031 75.035156 "/><path style=" stroke:none;fill-rule:nonzero;fill:#ffffff;fill-opacity:1;" d="M 42.210938 55.578125 C 42.773438 55.433594 43.296875 55.710938 43.789062 56.304688 C 44.886719 57.636719 46.0625 58.902344 47.214844 60.1875 C 47.304688 60.289062 47.285156 60.367188 47.25 60.476562 C 46.90625 61.613281 46.433594 62.699219 46.003906 63.800781 C 45.964844 63.929688 45.878906 63.992188 45.746094 63.992188 C 44.433594 64.121094 43.121094 64.253906 41.8125 64.382812 C 41.226562 64.441406 40.644531 64.503906 40.0625 64.570312 C 39.957031 64.59375 39.871094 64.5625 39.808594 64.476562 C 39.089844 63.652344 38.355469 62.84375 37.640625 62.015625 C 37.382812 61.714844 37.105469 61.433594 36.824219 61.15625 C 36.714844 61.046875 36.683594 60.957031 36.734375 60.804688 C 37.253906 59.265625 37.765625 57.722656 38.277344 56.179688 C 38.335938 56.003906 38.402344 55.914062 38.597656 55.890625 C 39.734375 55.75 40.878906 55.664062 42.210938 55.578125 Z M 42.210938 55.578125 "/><path style=" stroke:none;fill-rule:nonzero;fill:#ffffff;fill-opacity:1;" d="M 31.84375 69.480469 C 32.175781 69.5625 32.492188 69.636719 32.804688 69.714844 C 34.019531 70.011719 35.25 70.242188 36.488281 70.410156 C 36.726562 70.441406 36.878906 70.527344 37.007812 70.753906 C 37.875 72.28125 38.761719 73.796875 39.640625 75.316406 C 39.699219 75.417969 39.753906 75.503906 39.65625 75.628906 C 39.136719 76.324219 38.625 77.023438 38.121094 77.726562 C 37.996094 77.898438 37.886719 77.953125 37.65625 77.910156 C 35.738281 77.554688 33.816406 77.214844 31.890625 76.878906 C 31.78125 76.863281 31.691406 76.8125 31.625 76.722656 C 30.8125 75.707031 30.09375 74.628906 29.472656 73.484375 C 29.386719 73.328125 29.394531 73.222656 29.492188 73.070312 C 30.226562 71.9375 30.949219 70.792969 31.675781 69.65625 C 31.722656 69.585938 31.742188 69.480469 31.84375 69.480469 Z M 31.84375 69.480469 "/><path style=" stroke:none;fill-rule:nonzero;fill:#ffffff;fill-opacity:1;" d="M 34.828125 54.296875 C 35.105469 54.410156 35.382812 54.511719 35.652344 54.636719 C 36.242188 54.90625 36.804688 55.226562 37.34375 55.589844 C 37.464844 55.671875 37.496094 55.746094 37.445312 55.898438 C 36.957031 57.351562 36.476562 58.808594 36 60.265625 C 35.964844 60.386719 35.886719 60.464844 35.769531 60.503906 C 34.210938 61.121094 32.722656 61.882812 31.3125 62.792969 C 31.203125 62.863281 31.128906 62.851562 31.023438 62.785156 C 30.101562 62.238281 29.179688 61.6875 28.253906 61.152344 C 28.101562 61.0625 28.066406 60.972656 28.125 60.804688 C 28.464844 59.820312 28.824219 58.839844 29.371094 57.945312 C 29.640625 57.503906 30.074219 57.171875 30.464844 56.828125 C 31.710938 55.730469 33.117188 54.90625 34.679688 54.351562 Z M 34.828125 54.296875 "/><path style=" stroke:none;fill-rule:nonzero;fill:#ffffff;fill-opacity:1;" d="M 26.046875 66.582031 C 26.042969 65.621094 26.148438 64.675781 26.367188 63.742188 C 26.4375 63.453125 26.632812 63.191406 26.792969 62.929688 C 27.007812 62.585938 27.246094 62.257812 27.464844 61.914062 C 27.53125 61.8125 27.578125 61.765625 27.710938 61.847656 C 28.660156 62.417969 29.613281 62.980469 30.570312 63.539062 C 30.6875 63.605469 30.699219 63.695312 30.703125 63.808594 C 30.734375 64.671875 30.746094 65.539062 30.851562 66.402344 C 30.929688 67.066406 31.011719 67.726562 31.152344 68.378906 C 31.210938 68.617188 31.171875 68.835938 31.027344 69.03125 C 30.308594 70.132812 29.601562 71.242188 28.90625 72.359375 C 28.800781 72.527344 28.730469 72.53125 28.578125 72.429688 C 28.078125 72.101562 27.625 71.71875 27.15625 71.347656 C 26.726562 71.007812 26.644531 70.523438 26.511719 70.054688 C 26.195312 68.917969 26.042969 67.761719 26.046875 66.582031 Z M 26.046875 66.582031 "/><path style=" stroke:none;fill-rule:nonzero;fill:#ffffff;fill-opacity:1;" d="M 52.007812 67.652344 C 51.863281 69.515625 51.339844 71.265625 50.4375 72.902344 C 49.53125 74.539062 48.332031 75.917969 46.835938 77.035156 C 46.710938 77.128906 46.671875 77.105469 46.652344 76.960938 C 46.570312 76.34375 46.4375 75.738281 46.253906 75.144531 C 46.222656 75.046875 46.238281 74.953125 46.296875 74.871094 C 47.28125 73.03125 48.269531 71.191406 49.253906 69.351562 C 49.3125 69.246094 49.394531 69.171875 49.507812 69.128906 C 50.378906 68.714844 51.226562 68.257812 52.007812 67.652344 Z M 52.007812 67.652344 "/><path style=" stroke:none;fill-rule:nonzero;fill:#ffffff;fill-opacity:1;" d="M 43.988281 54.5625 C 47.140625 55.910156 49.425781 58.109375 50.902344 61.234375 C 50.582031 61.042969 50.308594 60.871094 50.03125 60.710938 C 49.4375 60.367188 48.820312 60.074219 48.179688 59.832031 C 48.085938 59.800781 48.003906 59.75 47.9375 59.675781 C 46.628906 58.203125 45.324219 56.730469 44.019531 55.257812 C 43.839844 55.054688 43.960938 54.816406 43.988281 54.5625 Z M 43.988281 54.5625 "/><path style=" stroke:none;fill-rule:nonzero;fill:#fefefe;fill-opacity:1;" d="M 32.8125 77.945312 C 33.902344 78.136719 34.992188 78.328125 36.082031 78.519531 C 36.515625 78.597656 36.949219 78.691406 37.386719 78.757812 C 37.644531 78.792969 37.890625 78.867188 38.125 78.984375 C 38.566406 79.207031 39.019531 79.394531 39.488281 79.554688 C 38.230469 79.738281 35.269531 79.410156 32.761719 78 C 32.742188 77.953125 32.757812 77.933594 32.8125 77.945312 Z M 32.8125 77.945312 "/><g clip-rule="nonzero" clip-path="url(#18d171157e)"><g clip-rule="nonzero" clip-path="url(#d661cb74d7)"><g transform="matrix(1,0,0,1,33,59)"><g clip-path="url(#3dfef79df2)"><g clip-rule="nonzero" clip-path="url(#f2eb41e9cd)"><g clip-rule="nonzero" clip-path="url(#a56ea1d4cb)"><path style=" stroke:none;fill-rule:nonzero;fill:#189e1e;fill-opacity:1;" d="M 0.730469 0.496094 L 21.105469 0.496094 L 21.105469 23.179688 L 0.730469 23.179688 Z M 0.730469 0.496094 "/></g></g></g></g></g></g><g clip-rule="nonzero" clip-path="url(#043267bb78)"><g clip-rule="nonzero" clip-path="url(#f68d8c5fd0)"><g transform="matrix(1,0,0,1,30,72)"><g clip-path="url(#8f08016856)"><g clip-rule="nonzero" clip-path="url(#6085f92b51)"><g clip-rule="nonzero" clip-path="url(#953d596888)"><path style=" stroke:none;fill-rule:nonzero;fill:#189e1e;fill-opacity:1;" d="M 0.621094 0.542969 L 16.433594 0.542969 L 16.433594 16.359375 L 0.621094 16.359375 Z M 0.621094 0.542969 "/></g></g></g></g></g></g><g clip-rule="nonzero" clip-path="url(#d71c51326c)"><path style=" stroke:none;fill-rule:nonzero;fill:#ffffff;fill-opacity:1;" d="M 49.042969 74.824219 C 47.644531 75.957031 45.855469 76.632812 43.917969 76.632812 C 41.988281 76.632812 40.199219 75.957031 38.800781 74.824219 C 36.378906 76.460938 34.78125 79.246094 34.78125 82.394531 L 34.78125 84.828125 C 34.78125 85.691406 35.496094 86.398438 36.359375 86.398438 L 51.484375 86.398438 C 52.351562 86.398438 53.054688 85.691406 53.054688 84.828125 L 53.054688 82.394531 C 53.054688 79.863281 52.035156 77.582031 50.382812 75.929688 C 49.972656 75.519531 49.527344 75.148438 49.042969 74.824219 Z M 49.042969 74.824219 "/></g><g clip-rule="nonzero" clip-path="url(#4ffabd01d9)"><path style=" stroke:none;fill-rule:nonzero;fill:#ffffff;fill-opacity:1;" d="M 43.921875 74.257812 C 47.121094 74.257812 49.707031 71.667969 49.707031 68.472656 C 49.707031 65.277344 47.117188 62.683594 43.921875 62.683594 C 40.726562 62.683594 38.136719 65.273438 38.136719 68.46875 C 38.136719 71.664062 40.722656 74.257812 43.921875 74.257812 Z M 43.921875 74.257812 "/></g></g></svg>